<?xml version="1.0" encoding="UTF-8" standalone="no"?>
<!DOCTYPE svg PUBLIC "-//W3C//DTD SVG 1.1//EN" "http://www.w3.org/Graphics/SVG/1.1/DTD/svg11.dtd">
<svg width="100%" height="100%" viewBox="0 0 1200 1200" version="1.1" xmlns="http://www.w3.org/2000/svg" xmlns:xlink="http://www.w3.org/1999/xlink" xml:space="preserve" xmlns:serif="http://www.serif.com/" style="fill-rule:evenodd;clip-rule:evenodd;stroke-linejoin:round;stroke-miterlimit:2;">
    <rect x="0" y="0" width="1200" height="1200" style="fill:rgb(47,37,46);"/>
    <path d="M980.48,905.76L781.64,706.68C870.843,581.34 859.593,406.54 747.234,294.04C621.974,168.6 419.204,168.6 293.914,294.04C168.654,419.48 168.654,622.49 293.914,747.88C406.274,860.38 580.884,871.62 706.094,782.286L904.934,981.366C958.184,1034.66 1036.98,962.288 980.496,905.757L980.48,905.76ZM369.61,672.18C286.219,588.649 286.219,453.32 369.61,369.79C453.001,286.26 588.19,286.259 671.63,369.79C755.021,453.321 755.021,588.65 671.63,672.18C588.192,755.664 453,755.664 369.61,672.18Z" style="fill:rgb(160,78,166);fill-rule:nonzero;"/>
</svg>
